# xmcd
#
# Track frame offsets: 
#        150
#        57557
#        95947
#        114895
#        132366
#        166061
#        185678
#        219275
#        255471
#        287508
#
# Disc length: 4278 seconds
#
# Revision: 0
# Processed by: cddbd v1.4PL0 Copyright (c) Steve Scherf et al.
# Submitted via: ExactAudioCopy v0.95a3
#
DISCID=8e10b40a
DTITLE=Eric Clapton - 1994-11-28 Club full of Blues disc 2
DYEAR=1994
DGENRE=Blues
TTITLE0=Early in the Morning
TTITLE1=Every day I have the Blues
TTITLE2=Someday after a while
TTITLE3=Tore down
TTITLE4=Have you ever loved a Woman
TTITLE5=Crosscut Saw
TTITLE6=Black Cat Bone
TTITLE7=Five long years
TTITLE8=Crossroads
TTITLE9=Groaning the Blues
EXTD=
EXTT0=
EXTT1=
EXTT2=
EXTT3=
EXTT4=
EXTT5=
EXTT6=
EXTT7=
EXTT8=
EXTT9=
PLAYORDER=
